<svg width="525" height="545" viewBox="0 0 525 545" fill="none" xmlns="http://www.w3.org/2000/svg">
<g filter="url(#filter0_d_571_520)">
<path d="M412.331 96.8503C438.802 96.8503 460.261 75.1697 460.261 48.4252C460.261 21.6807 438.802 0 412.331 0C385.86 0 364.401 21.6807 364.401 48.4252C364.401 60.3808 368.69 71.3244 375.797 79.7717L303.925 171.23C292.64 163.083 279.141 157.866 264.516 156.68L257.009 94.1509C271.897 88.3673 282.463 73.7818 282.463 56.7032C282.463 34.5532 264.691 16.5971 242.767 16.5971C220.844 16.5971 203.072 34.5532 203.072 56.7032C203.072 76.0471 216.626 92.1925 234.662 95.9729L239.34 158.329L240.918 158.323C226.28 161.613 213.174 169.013 202.848 179.263L140.593 142.101C143.117 135.247 144.496 127.83 144.496 120.087C144.496 85.2173 116.519 56.9499 82.0061 56.9499C47.4935 56.9499 19.5153 85.2173 19.5153 120.087C19.5153 154.956 47.4935 183.223 82.0061 183.223C98.4117 183.223 113.341 176.836 124.49 166.389L183.279 210.892C180.664 218.817 179.248 227.296 179.248 236.109C179.248 246.301 181.142 256.045 184.593 265.003L184.538 264.924L105.766 332.782C95.034 324.011 81.3694 318.757 66.4903 318.757C31.9777 318.757 4 347.024 4 381.894C4 416.763 31.9777 445.03 66.4903 445.03C101.003 445.03 128.981 416.763 128.981 381.894C128.981 372.803 127.079 364.16 123.656 356.351L206.985 296.799L206.954 296.755C220.728 308.628 238.595 315.796 258.12 315.796C260.802 315.796 263.451 315.661 266.064 315.397L297.409 420.336C280.174 431.577 268.763 451.152 268.763 473.42C268.763 508.29 296.741 536.557 331.254 536.557C365.767 536.557 393.745 508.29 393.745 473.42C393.745 438.551 365.767 410.284 331.254 410.284C329.618 410.284 327.997 410.347 326.393 410.472L297.754 305.02C312.366 296.422 323.995 283.216 330.69 267.373L330.672 267.463L399.486 281.21C399.487 315.112 426.688 342.594 460.243 342.594C493.799 342.594 521 315.111 521 281.209C521 247.307 493.799 219.823 460.243 219.823C435.86 219.823 414.832 234.335 405.158 255.276L336.999 236.114L336.992 236.149V236.109C336.992 221.947 333.335 208.647 326.924 197.122L397.315 94.4265C402.038 95.9993 407.086 96.8503 412.331 96.8503Z" fill="url(#paint0_linear_571_520)"/>
</g>
<defs>
<filter id="filter0_d_571_520" x="0" y="0" width="525" height="544.557" filterUnits="userSpaceOnUse" color-interpolation-filters="sRGB">
<feFlood flood-opacity="0" result="BackgroundImageFix"/>
<feColorMatrix in="SourceAlpha" type="matrix" values="0 0 0 0 0 0 0 0 0 0 0 0 0 0 0 0 0 0 127 0" result="hardAlpha"/>
<feOffset dy="4"/>
<feGaussianBlur stdDeviation="2"/>
<feComposite in2="hardAlpha" operator="out"/>
<feColorMatrix type="matrix" values="0 0 0 0 0 0 0 0 0 0 0 0 0 0 0 0 0 0 0.25 0"/>
<feBlend mode="normal" in2="BackgroundImageFix" result="effect1_dropShadow_571_520"/>
<feBlend mode="normal" in="SourceGraphic" in2="effect1_dropShadow_571_520" result="shape"/>
</filter>
<linearGradient id="paint0_linear_571_520" x1="262.5" y1="0" x2="262.5" y2="536.557" gradientUnits="userSpaceOnUse">
<stop stop-color="#FFE242"/>
<stop offset="1" stop-color="#01A98B"/>
</linearGradient>
</defs>
</svg>
