<svg width="900" height="900" viewBox="0 0 900 900" fill="none" xmlns="http://www.w3.org/2000/svg">
<circle cx="450" cy="450" r="450" fill="black"/>
<path fill-rule="evenodd" clip-rule="evenodd" d="M355.5 259C355.5 231.662 377.662 209.5 405 209.5C432.338 209.5 454.5 231.662 454.5 259C454.5 278.798 442.877 295.886 426.072 303.804L424.964 304.326L424.698 305.521C420.543 324.136 423.248 342.962 429.318 360.158L429.8 361.524L431.225 361.785C442.41 363.832 452.767 368.25 461.757 374.501L462.928 375.314L464.224 374.722C504.682 356.223 530.513 319.567 544.387 288.75L544.721 288.007L544.554 287.211C543.863 283.918 543.5 280.503 543.5 277C543.5 249.662 565.662 227.5 593 227.5C620.338 227.5 642.5 249.662 642.5 277C642.5 304.338 620.338 326.5 593 326.5C589.638 326.5 586.357 326.165 583.188 325.528L582.476 325.385L581.798 325.646C549.597 338.034 526.104 358.8 509.528 381H515.817C531.654 360.722 553.541 342.029 582.926 330.57C586.193 331.181 589.56 331.5 593 331.5C623.1 331.5 647.5 307.1 647.5 277C647.5 246.9 623.1 222.5 593 222.5C562.9 222.5 538.5 246.9 538.5 277C538.5 280.564 538.842 284.05 539.497 287.427C525.975 317.142 501.331 351.736 463.421 369.583C454.53 363.626 444.429 359.33 433.565 357.143C428.174 341.312 425.893 324.386 429.326 307.783C447.21 298.848 459.5 280.362 459.5 259C459.5 228.9 435.1 204.5 405 204.5C374.9 204.5 350.5 228.9 350.5 259C350.5 278.036 360.262 294.791 375.041 304.534C378.579 320.356 379.224 341.411 372.266 368.482C370.01 369.916 367.828 371.455 365.727 373.092C340.287 366.627 311.361 353.619 289.49 330.073C289.497 329.716 289.5 329.359 289.5 329C289.5 298.9 265.1 274.5 235 274.5C204.9 274.5 180.5 298.9 180.5 329C180.5 359.1 204.9 383.5 235 383.5C239.798 383.5 244.455 382.879 248.893 381.713C279.311 389.9 314.218 406.279 333.606 434.747C333.536 436.156 333.5 437.574 333.5 439C333.5 446.141 334.397 453.076 336.086 459.698C319.454 482.188 296.868 494.316 276.06 500.15C269.313 497.16 261.847 495.5 254 495.5C223.9 495.5 199.5 519.9 199.5 550C199.5 580.1 223.9 604.5 254 604.5C284.1 604.5 308.5 580.1 308.5 550C308.5 548.881 308.466 547.769 308.4 546.667C332.23 523.263 351.788 511.215 366.985 505.87C371.851 509.515 377.128 512.641 382.735 515.168C387.844 554.772 371.767 589.547 352.935 613.928C332.241 621.657 317.5 641.604 317.5 665C317.5 695.1 341.9 719.5 372 719.5C402.1 719.5 426.5 695.1 426.5 665C426.5 652.112 422.023 640.263 414.542 630.932C412.116 584.857 424.933 546.459 439.994 519.293C440.879 519.04 441.758 518.773 442.63 518.492C457.7 531.836 475.15 552.393 489.945 582.889C487.717 588.839 486.5 595.28 486.5 602C486.5 632.1 510.9 656.5 541 656.5C571.1 656.5 595.5 632.1 595.5 602C595.5 573.071 572.962 549.408 544.485 547.61C530.191 539.34 514.127 527.954 500.363 514H493.438C508.506 530.188 526.7 543.151 542.503 552.239L543.022 552.537L543.62 552.568C569.739 553.929 590.5 575.541 590.5 602C590.5 629.338 568.338 651.5 541 651.5C513.662 651.5 491.5 629.338 491.5 602C491.5 595.532 492.739 589.36 494.991 583.703L495.396 582.685L494.922 581.697C479.456 549.475 461.004 527.892 445.093 514H440.252C439.395 514.265 438.531 514.516 437.662 514.753L436.651 515.028L436.138 515.941C420.39 543.995 406.883 583.964 409.594 632.021L409.641 632.841L410.164 633.474C417.246 642.037 421.5 653.018 421.5 665C421.5 692.338 399.338 714.5 372 714.5C344.662 714.5 322.5 692.338 322.5 665C322.5 643.522 336.181 625.232 355.312 618.383L355.995 618.138L356.441 617.566C376.182 592.233 393.462 555.369 387.501 513.095L387.304 511.703L386.013 511.148C379.891 508.515 374.171 505.125 368.969 501.096L367.914 500.279L366.648 500.7C350.141 506.196 329.256 519.006 304.066 543.917L303.237 544.737L303.333 545.899C303.443 547.251 303.5 548.618 303.5 550C303.5 577.338 281.338 599.5 254 599.5C226.662 599.5 204.5 577.338 204.5 550C204.5 522.662 226.662 500.5 254 500.5C261.435 500.5 268.48 502.137 274.801 505.069L275.63 505.453L276.511 505.213C298.669 499.171 323.089 486.228 340.832 461.677L341.531 460.711L341.219 459.56C339.447 453.009 338.5 446.117 338.5 439C338.5 437.387 338.549 435.785 338.644 434.196L338.695 433.357L338.228 432.658C317.798 402.059 280.786 385.019 249.533 376.708L248.878 376.534L248.225 376.714C244.018 377.878 239.584 378.5 235 378.5C207.662 378.5 185.5 356.338 185.5 329C185.5 301.662 207.662 279.5 235 279.5C262.338 279.5 284.5 301.662 284.5 329C284.5 329.644 284.488 330.286 284.463 330.924L284.424 331.949L285.116 332.706C308.279 358.046 339.119 371.669 365.712 378.243L366.913 378.54L367.878 377.765C370.381 375.754 373.01 373.894 375.751 372.198L376.601 371.672L376.854 370.706C384.413 341.887 383.661 319.384 379.686 302.415L379.452 301.419L378.587 300.872C364.708 292.098 355.5 276.623 355.5 259ZM141.5 434C141.5 418.26 154.26 405.5 170 405.5C185.74 405.5 198.5 418.26 198.5 434C198.5 449.74 185.74 462.5 170 462.5C154.26 462.5 141.5 449.74 141.5 434ZM170 400.5C151.498 400.5 136.5 415.498 136.5 434C136.5 452.502 151.498 467.5 170 467.5C188.502 467.5 203.5 452.502 203.5 434C203.5 415.498 188.502 400.5 170 400.5Z" fill="white"/>
<path fill-rule="evenodd" clip-rule="evenodd" d="M354.5 259C354.5 231.11 377.11 208.5 405 208.5C432.89 208.5 455.5 231.11 455.5 259C455.5 279.199 443.641 296.632 426.498 304.709L425.834 305.022L425.674 305.739C421.57 324.121 424.234 342.751 430.261 359.825L430.55 360.645L431.405 360.802C442.734 362.875 453.223 367.349 462.328 373.68L463.03 374.168L463.808 373.812C503.964 355.452 529.656 319.035 543.475 288.339L543.675 287.894L543.575 287.416C542.871 284.056 542.5 280.572 542.5 277C542.5 249.11 565.11 226.5 593 226.5C620.89 226.5 643.5 249.11 643.5 277C643.5 304.89 620.89 327.5 593 327.5C589.572 327.5 586.225 327.159 582.991 326.508L582.563 326.423L582.157 326.579C550.452 338.777 527.234 359.151 510.777 381H514.551C530.564 360.305 552.818 341.175 582.831 329.535C586.124 330.168 589.524 330.5 593 330.5C622.547 330.5 646.5 306.547 646.5 277C646.5 247.453 622.547 223.5 593 223.5C563.453 223.5 539.5 247.453 539.5 277C539.5 280.61 539.858 284.137 540.54 287.549C526.931 317.583 501.952 352.758 463.331 370.729C454.282 364.576 443.944 360.174 432.806 358.013C427.188 341.756 424.784 324.27 428.447 307.102C446.239 298.413 458.5 280.14 458.5 259C458.5 229.453 434.547 205.5 405 205.5C375.453 205.5 351.5 229.453 351.5 259C351.5 277.83 361.229 294.387 375.928 303.919C379.598 320.026 380.293 341.493 373.135 369.115C370.65 370.678 368.254 372.37 365.957 374.181C340.177 367.702 310.692 354.522 288.481 330.456C288.493 329.972 288.5 329.487 288.5 329C288.5 299.453 264.547 275.5 235 275.5C205.453 275.5 181.5 299.453 181.5 329C181.5 358.547 205.453 382.5 235 382.5C239.804 382.5 244.462 381.866 248.895 380.678C279.56 388.892 315.019 405.449 334.623 434.464C334.541 435.966 334.5 437.478 334.5 439C334.5 446.222 335.428 453.229 337.173 459.908C320.261 482.989 297.164 495.336 275.981 501.21C269.274 498.184 261.832 496.5 254 496.5C224.453 496.5 200.5 520.453 200.5 550C200.5 579.547 224.453 603.5 254 603.5C283.547 603.5 307.5 579.547 307.5 550C307.5 548.748 307.457 547.506 307.372 546.274C331.678 522.337 351.637 510.093 367.161 504.75C372.231 508.599 377.761 511.876 383.654 514.483C389.048 554.791 372.645 590.133 353.55 614.767C333.096 622.282 318.5 641.934 318.5 665C318.5 694.547 342.453 718.5 372 718.5C401.547 718.5 425.5 694.547 425.5 665C425.5 652.232 421.026 640.506 413.561 631.309C411.035 584.665 424.063 545.829 439.322 518.444C440.513 518.11 441.694 517.75 442.863 517.364C458.191 530.838 475.998 551.719 491.033 582.841C488.75 588.791 487.5 595.251 487.5 602C487.5 631.547 511.453 655.5 541 655.5C570.547 655.5 594.5 631.547 594.5 602C594.5 573.523 572.252 550.244 544.189 548.594C529.561 540.151 513.029 528.429 498.962 514H494.808C509.657 529.771 527.469 542.44 543.002 551.372L543.313 551.551L543.672 551.569C570.319 552.958 591.5 575.006 591.5 602C591.5 629.89 568.89 652.5 541 652.5C513.11 652.5 490.5 629.89 490.5 602C490.5 595.404 491.764 589.106 494.062 583.334L494.305 582.723L494.02 582.13C478.534 549.865 460.054 528.333 444.187 514.536L443.57 514H443.445L442.717 514.249C441.142 514.787 439.543 515.277 437.925 515.718L437.318 515.883L437.01 516.431C421.338 544.348 407.894 584.129 410.593 631.965L410.62 632.457L410.934 632.836C418.16 641.572 422.5 652.777 422.5 665C422.5 692.89 399.89 715.5 372 715.5C344.11 715.5 321.5 692.89 321.5 665C321.5 643.086 335.459 624.429 354.975 617.441L355.385 617.295L355.652 616.951C375.292 591.747 392.421 555.15 386.51 513.235L386.393 512.4L385.618 512.066C379.418 509.4 373.624 505.967 368.357 501.886L367.724 501.396L366.964 501.649C350.65 507.081 329.892 519.782 304.77 544.628L304.272 545.12L304.329 545.817C304.442 547.196 304.5 548.591 304.5 550C304.5 577.89 281.89 600.5 254 600.5C226.11 600.5 203.5 577.89 203.5 550C203.5 522.11 226.11 499.5 254 499.5C261.583 499.5 268.772 501.17 275.222 504.162L275.719 504.392L276.248 504.248C298.241 498.251 322.443 485.415 340.022 461.091L340.441 460.511L340.254 459.821C338.458 453.186 337.5 446.206 337.5 439C337.5 437.367 337.549 435.745 337.646 434.136L337.677 433.633L337.396 433.213C317.167 402.915 280.441 385.962 249.276 377.674L248.883 377.57L248.491 377.678C244.198 378.865 239.675 379.5 235 379.5C207.11 379.5 184.5 356.89 184.5 329C184.5 301.11 207.11 278.5 235 278.5C262.89 278.5 285.5 301.11 285.5 329C285.5 329.657 285.487 330.311 285.463 330.962L285.439 331.577L285.854 332.031C308.842 357.18 339.481 370.728 365.952 377.272L366.673 377.45L367.252 376.985C369.787 374.949 372.449 373.065 375.225 371.347L375.735 371.032L375.887 370.452C383.408 341.778 382.647 319.441 378.712 302.643L378.572 302.046L378.053 301.718C363.896 292.768 354.5 276.981 354.5 259ZM140.5 434C140.5 417.708 153.708 404.5 170 404.5C186.292 404.5 199.5 417.708 199.5 434C199.5 450.292 186.292 463.5 170 463.5C153.708 463.5 140.5 450.292 140.5 434ZM170 401.5C152.051 401.5 137.5 416.051 137.5 434C137.5 451.949 152.051 466.5 170 466.5C187.949 466.5 202.5 451.949 202.5 434C202.5 416.051 187.949 401.5 170 401.5Z" fill="white"/>
<path d="M426.498 304.709L425.433 302.448L425.433 302.448L426.498 304.709ZM425.834 305.022L424.768 302.761L423.66 303.283L423.394 304.478L425.834 305.022ZM425.674 305.739L428.114 306.284L428.114 306.284L425.674 305.739ZM430.261 359.825L432.618 358.993L432.618 358.993L430.261 359.825ZM430.55 360.645L428.193 361.477L428.675 362.843L430.1 363.104L430.55 360.645ZM431.405 360.802L430.955 363.261L430.955 363.261L431.405 360.802ZM462.328 373.68L460.901 375.732L460.901 375.732L462.328 373.68ZM463.03 374.168L461.603 376.221L462.774 377.034L464.07 376.442L463.03 374.168ZM463.808 373.812L464.848 376.086L464.848 376.086L463.808 373.812ZM543.475 288.339L541.195 287.313L541.195 287.313L543.475 288.339ZM543.675 287.894L545.955 288.92L546.289 288.178L546.122 287.381L543.675 287.894ZM543.575 287.416L541.128 287.929L541.128 287.929L543.575 287.416ZM582.991 326.508L583.484 324.058L583.484 324.058L582.991 326.508ZM582.563 326.423L583.056 323.972L582.344 323.828L581.666 324.089L582.563 326.423ZM582.157 326.579L581.259 324.246L581.259 324.246L582.157 326.579ZM510.777 381L508.78 379.496L505.765 383.5H510.777V381ZM514.551 381V383.5H515.777L516.528 382.53L514.551 381ZM582.831 329.535L583.304 327.08L582.598 326.944L581.927 327.204L582.831 329.535ZM540.54 287.549L542.817 288.581L543.149 287.848L542.991 287.058L540.54 287.549ZM463.331 370.729L461.926 372.796L463.099 373.594L464.386 372.995L463.331 370.729ZM432.806 358.013L430.443 358.829L430.914 360.192L432.329 360.467L432.806 358.013ZM428.447 307.102L427.35 304.855L426.256 305.389L426.002 306.58L428.447 307.102ZM375.928 303.919L378.365 303.363L378.14 302.374L377.288 301.821L375.928 303.919ZM373.135 369.115L374.466 371.231L375.306 370.703L375.555 369.742L373.135 369.115ZM365.957 374.181L365.348 376.606L366.54 376.906L367.505 376.145L365.957 374.181ZM288.481 330.456L285.981 330.389L285.954 331.404L286.643 332.151L288.481 330.456ZM248.895 380.678L249.542 378.263L248.894 378.089L248.247 378.263L248.895 380.678ZM334.623 434.464L337.119 434.599L337.164 433.76L336.694 433.064L334.623 434.464ZM337.173 459.908L339.189 461.385L339.892 460.426L339.592 459.276L337.173 459.908ZM275.981 501.21L274.953 503.489L275.778 503.861L276.649 503.619L275.981 501.21ZM307.372 546.274L305.618 544.493L304.799 545.3L304.878 546.446L307.372 546.274ZM367.161 504.75L368.672 502.759L367.609 501.951L366.347 502.386L367.161 504.75ZM383.654 514.483L386.132 514.151L385.946 512.763L384.665 512.196L383.654 514.483ZM353.55 614.767L354.413 617.113L355.087 616.866L355.526 616.298L353.55 614.767ZM413.561 631.309L411.065 631.444L411.109 632.254L411.62 632.884L413.561 631.309ZM439.322 518.444L438.647 516.037L437.645 516.318L437.138 517.227L439.322 518.444ZM442.863 517.364L444.514 515.487L443.439 514.542L442.08 514.99L442.863 517.364ZM491.033 582.841L493.367 583.737L493.755 582.727L493.284 581.754L491.033 582.841ZM544.189 548.594L542.94 550.759L543.452 551.054L544.042 551.089L544.189 548.594ZM498.962 514L500.753 512.255L500.017 511.5H498.962V514ZM494.808 514V511.5H489.02L492.988 515.714L494.808 514ZM543.002 551.372L541.756 553.539L541.756 553.539L543.002 551.372ZM543.313 551.551L542.067 553.718L542.586 554.016L543.183 554.047L543.313 551.551ZM543.672 551.569L543.802 549.073L543.802 549.073L543.672 551.569ZM494.062 583.334L491.739 582.409L491.739 582.409L494.062 583.334ZM494.305 582.723L496.628 583.647L497.033 582.629L496.559 581.641L494.305 582.723ZM494.02 582.13L496.274 581.048L496.274 581.048L494.02 582.13ZM444.187 514.536L445.827 512.65L445.827 512.65L444.187 514.536ZM443.57 514L445.21 512.113L444.505 511.5H443.57V514ZM443.445 514V511.5H443.03L442.637 511.634L443.445 514ZM442.717 514.249L443.526 516.614L443.526 516.614L442.717 514.249ZM437.925 515.718L437.268 513.306L437.268 513.306L437.925 515.718ZM437.318 515.883L436.662 513.471L435.651 513.746L435.138 514.659L437.318 515.883ZM437.01 516.431L434.831 515.207L434.831 515.207L437.01 516.431ZM410.593 631.965L413.089 631.824L413.089 631.824L410.593 631.965ZM410.62 632.457L408.124 632.597L408.171 633.417L408.694 634.05L410.62 632.457ZM410.934 632.836L412.861 631.243L412.861 631.243L410.934 632.836ZM354.975 617.441L355.817 619.795L355.817 619.795L354.975 617.441ZM355.385 617.295L356.227 619.648L356.911 619.404L357.357 618.831L355.385 617.295ZM355.652 616.951L357.624 618.488L357.624 618.488L355.652 616.951ZM386.51 513.235L384.035 513.584L384.035 513.584L386.51 513.235ZM386.393 512.4L388.868 512.051L388.672 510.658L387.38 510.103L386.393 512.4ZM385.618 512.066L384.63 514.363L384.63 514.363L385.618 512.066ZM368.357 501.886L369.888 499.91L369.888 499.91L368.357 501.886ZM367.724 501.396L369.255 499.42L368.2 498.603L366.934 499.024L367.724 501.396ZM366.964 501.649L367.754 504.021L367.754 504.021L366.964 501.649ZM304.77 544.628L303.012 542.851L303.012 542.851L304.77 544.628ZM304.272 545.12L302.514 543.342L301.685 544.162L301.781 545.324L304.272 545.12ZM304.329 545.817L306.821 545.613L306.821 545.613L304.329 545.817ZM275.222 504.162L274.17 506.43L274.17 506.43L275.222 504.162ZM275.719 504.392L274.667 506.66L275.496 507.045L276.377 506.804L275.719 504.392ZM276.248 504.248L276.906 506.66L276.906 506.66L276.248 504.248ZM340.022 461.091L337.995 459.627L337.995 459.627L340.022 461.091ZM340.441 460.511L342.467 461.976L343.165 461.009L342.854 459.858L340.441 460.511ZM340.254 459.821L342.667 459.168L342.667 459.168L340.254 459.821ZM337.646 434.136L340.142 434.287L340.142 434.287L337.646 434.136ZM337.677 433.633L340.172 433.783L340.223 432.944L339.756 432.244L337.677 433.633ZM337.396 433.213L339.476 431.825L339.476 431.825L337.396 433.213ZM249.276 377.674L249.919 375.258L249.919 375.258L249.276 377.674ZM248.883 377.57L249.526 375.154L248.871 374.979L248.217 375.16L248.883 377.57ZM248.491 377.678L247.825 375.269L247.825 375.269L248.491 377.678ZM285.463 330.962L287.961 331.057L287.961 331.057L285.463 330.962ZM285.439 331.577L282.941 331.481L282.902 332.506L283.594 333.264L285.439 331.577ZM285.854 332.031L284.009 333.718L284.009 333.718L285.854 332.031ZM365.952 377.272L366.552 374.845L366.552 374.845L365.952 377.272ZM366.673 377.45L366.073 379.877L367.274 380.174L368.239 379.399L366.673 377.45ZM367.252 376.985L368.817 378.934L368.817 378.934L367.252 376.985ZM375.225 371.347L376.541 373.473L376.541 373.473L375.225 371.347ZM375.735 371.032L377.05 373.158L377.9 372.632L378.153 371.666L375.735 371.032ZM375.887 370.452L378.305 371.087L378.305 371.087L375.887 370.452ZM378.712 302.643L376.278 303.213L376.278 303.214L378.712 302.643ZM378.572 302.046L381.006 301.475L380.773 300.479L379.908 299.932L378.572 302.046ZM378.053 301.718L379.389 299.604L379.389 299.604L378.053 301.718ZM405 206C375.729 206 352 229.729 352 259H357C357 232.49 378.49 211 405 211V206ZM458 259C458 229.729 434.271 206 405 206V211C431.51 211 453 232.49 453 259H458ZM427.564 306.971C445.549 298.496 458 280.203 458 259H453C453 278.196 441.732 294.768 425.433 302.448L427.564 306.971ZM426.899 307.284L427.564 306.971L425.433 302.448L424.768 302.761L426.899 307.284ZM428.114 306.284L428.274 305.567L423.394 304.478L423.234 305.195L428.114 306.284ZM432.618 358.993C426.699 342.223 424.14 324.083 428.114 306.284L423.234 305.195C419.001 324.158 421.769 343.279 427.903 360.657L432.618 358.993ZM432.908 359.813L432.618 358.993L427.903 360.657L428.193 361.477L432.908 359.813ZM431.855 358.342L431 358.186L430.1 363.104L430.955 363.261L431.855 358.342ZM463.755 371.627C454.365 365.098 443.543 360.481 431.855 358.342L430.955 363.261C441.924 365.268 452.082 369.601 460.901 375.732L463.755 371.627ZM464.458 372.115L463.755 371.627L460.901 375.732L461.603 376.221L464.458 372.115ZM462.769 371.539L461.991 371.894L464.07 376.442L464.848 376.086L462.769 371.539ZM541.195 287.313C527.514 317.703 502.169 353.524 462.769 371.539L464.848 376.086C505.759 357.38 531.799 320.366 545.754 289.366L541.195 287.313ZM541.396 286.868L541.195 287.313L545.754 289.366L545.955 288.92L541.396 286.868ZM541.128 287.929L541.229 288.407L546.122 287.381L546.022 286.903L541.128 287.929ZM540 277C540 280.745 540.389 284.401 541.128 287.929L546.022 286.903C545.353 283.711 545 280.399 545 277H540ZM593 224C563.729 224 540 247.729 540 277H545C545 250.49 566.49 229 593 229V224ZM646 277C646 247.729 622.271 224 593 224V229C619.51 229 641 250.49 641 277H646ZM593 330C622.271 330 646 306.271 646 277H641C641 303.51 619.51 325 593 325V330ZM582.498 328.959C585.893 329.642 589.405 330 593 330V325C589.738 325 586.556 324.675 583.484 324.058L582.498 328.959ZM582.071 328.874L582.498 328.959L583.484 324.058L583.056 323.972L582.071 328.874ZM583.054 328.912L583.461 328.756L581.666 324.089L581.259 324.246L583.054 328.912ZM512.774 382.504C528.999 360.964 551.857 340.915 583.054 328.912L581.259 324.246C549.047 336.639 525.469 357.339 508.78 379.496L512.774 382.504ZM510.777 383.5H514.551V378.5H510.777V383.5ZM581.927 327.204C551.424 339.034 528.819 358.475 512.574 379.47L516.528 382.53C532.31 362.134 554.211 343.316 583.735 331.865L581.927 327.204ZM593 328C589.684 328 586.442 327.684 583.304 327.08L582.359 331.989C585.807 332.653 589.365 333 593 333V328ZM644 277C644 305.167 621.167 328 593 328V333C623.928 333 649 307.928 649 277H644ZM593 226C621.167 226 644 248.833 644 277H649C649 246.072 623.928 221 593 221V226ZM542 277C542 248.833 564.833 226 593 226V221C562.072 221 537 246.072 537 277H542ZM542.991 287.058C542.341 283.807 542 280.444 542 277H537C537 280.775 537.374 284.467 538.089 288.039L542.991 287.058ZM464.386 372.995C503.748 354.68 529.071 318.919 542.817 288.581L538.263 286.517C524.792 316.247 500.156 350.836 462.276 368.462L464.386 372.995ZM432.329 360.467C443.127 362.562 453.15 366.829 461.926 372.796L464.737 368.661C455.414 362.322 444.76 357.786 433.282 355.559L432.329 360.467ZM426.002 306.58C422.219 324.312 424.722 342.272 430.443 358.829L435.168 357.196C429.655 341.239 427.349 324.229 430.892 307.623L426.002 306.58ZM456 259C456 279.148 444.317 296.57 427.35 304.855L429.544 309.348C448.162 300.256 461 281.131 461 259H456ZM405 208C433.167 208 456 230.833 456 259H461C461 228.072 435.928 203 405 203V208ZM354 259C354 230.833 376.833 208 405 208V203C374.072 203 349 228.072 349 259H354ZM377.288 301.821C363.27 292.73 354 276.947 354 259H349C349 278.712 359.188 296.043 374.567 306.016L377.288 301.821ZM375.555 369.742C382.805 341.765 382.131 319.892 378.365 303.363L373.49 304.474C377.065 320.161 377.781 341.221 370.715 368.488L375.555 369.742ZM367.505 376.145C369.733 374.388 372.056 372.747 374.466 371.231L371.804 366.999C369.244 368.609 366.776 370.352 364.409 372.218L367.505 376.145ZM286.643 332.151C309.287 356.685 339.267 370.051 365.348 376.606L366.567 371.757C341.087 365.353 312.098 352.359 290.318 328.76L286.643 332.151ZM286 329C286 329.464 285.994 329.927 285.981 330.389L290.98 330.522C290.993 330.016 291 329.509 291 329H286ZM235 278C263.167 278 286 300.833 286 329H291C291 298.072 265.928 273 235 273V278ZM184 329C184 300.833 206.833 278 235 278V273C204.072 273 179 298.072 179 329H184ZM235 380C206.833 380 184 357.167 184 329H179C179 359.928 204.072 385 235 385V380ZM248.247 378.263C244.024 379.396 239.583 380 235 380V385C240.025 385 244.901 384.337 249.543 383.092L248.247 378.263ZM336.694 433.064C316.591 403.31 280.429 386.537 249.542 378.263L248.248 383.092C278.692 391.248 313.447 407.587 332.551 435.863L336.694 433.064ZM337 439C337 437.523 337.04 436.056 337.119 434.599L332.126 434.328C332.042 435.875 332 437.433 332 439H337ZM339.592 459.276C337.901 452.802 337 446.007 337 439H332C332 446.437 332.956 453.656 334.754 460.539L339.592 459.276ZM276.649 503.619C298.239 497.633 321.871 485.021 339.189 461.385L335.156 458.43C318.65 480.957 296.09 493.04 275.313 498.801L276.649 503.619ZM254 499C261.47 499 268.562 500.605 274.953 503.489L277.01 498.931C269.985 495.762 262.193 494 254 494V499ZM203 550C203 521.833 225.833 499 254 499V494C223.072 494 198 519.072 198 550H203ZM254 601C225.833 601 203 578.167 203 550H198C198 580.928 223.072 606 254 606V601ZM305 550C305 578.167 282.167 601 254 601V606C284.928 606 310 580.928 310 550H305ZM304.878 546.446C304.959 547.62 305 548.805 305 550H310C310 548.691 309.955 547.391 309.866 546.103L304.878 546.446ZM366.347 502.386C350.356 507.89 330.088 520.394 305.618 544.493L309.126 548.056C333.268 524.279 352.918 512.296 367.974 507.114L366.347 502.386ZM384.665 512.196C378.952 509.669 373.59 506.492 368.672 502.759L365.649 506.741C370.872 510.706 376.57 514.082 382.642 516.769L384.665 512.196ZM355.526 616.298C374.87 591.342 391.644 555.344 386.132 514.151L381.176 514.814C386.452 554.239 370.42 588.923 351.575 613.235L355.526 616.298ZM321 665C321 643.016 334.91 624.278 354.413 617.113L352.688 612.42C331.282 620.285 316 640.853 316 665H321ZM372 716C343.833 716 321 693.167 321 665H316C316 695.928 341.072 721 372 721V716ZM423 665C423 693.167 400.167 716 372 716V721C402.928 721 428 695.928 428 665H423ZM411.62 632.884C418.736 641.652 423 652.827 423 665H428C428 651.638 423.315 639.36 415.502 629.733L411.62 632.884ZM437.138 517.227C421.691 544.951 408.509 584.252 411.065 631.444L416.057 631.173C413.561 585.078 426.436 546.707 441.506 519.661L437.138 517.227ZM442.08 514.99C440.947 515.364 439.802 515.713 438.647 516.037L439.997 520.851C441.225 520.507 442.442 520.136 443.647 519.738L442.08 514.99ZM493.284 581.754C478.1 550.322 460.086 529.176 444.514 515.487L441.213 519.242C456.296 532.501 473.896 553.115 488.782 583.929L493.284 581.754ZM490 602C490 595.562 491.192 589.405 493.367 583.737L488.699 581.946C486.308 588.177 485 594.94 485 602H490ZM541 653C512.833 653 490 630.167 490 602H485C485 632.928 510.072 658 541 658V653ZM592 602C592 630.167 569.167 653 541 653V658C571.928 658 597 632.928 597 602H592ZM544.042 551.089C570.792 552.662 592 574.855 592 602H597C597 572.192 573.713 547.826 544.336 546.098L544.042 551.089ZM497.172 515.745C511.437 530.377 528.167 542.233 542.94 550.759L545.439 546.428C530.956 538.07 514.62 526.48 500.753 512.255L497.172 515.745ZM498.962 511.5H494.808V516.5H498.962V511.5ZM544.248 549.205C528.866 540.359 511.266 527.833 496.628 512.286L492.988 515.714C508.048 531.709 526.073 544.521 541.756 553.539L544.248 549.205ZM544.559 549.383L544.248 549.204L541.756 553.539L542.067 553.718L544.559 549.383ZM543.802 549.073L543.443 549.054L543.183 554.047L543.542 554.066L543.802 549.073ZM594 602C594 573.669 571.771 550.53 543.802 549.073L543.542 554.066C568.868 555.385 589 576.343 589 602H594ZM541 655C570.271 655 594 631.271 594 602H589C589 628.51 567.51 650 541 650V655ZM488 602C488 631.271 511.729 655 541 655V650C514.49 650 493 628.51 493 602H488ZM491.739 582.409C489.326 588.471 488 595.082 488 602H493C493 595.725 494.202 589.741 496.384 584.258L491.739 582.409ZM491.982 581.798L491.739 582.409L496.384 584.258L496.628 583.647L491.982 581.798ZM491.766 583.212L492.051 583.804L496.559 581.641L496.274 581.048L491.766 583.212ZM442.546 516.423C458.163 530.002 476.431 551.262 491.766 583.212L496.274 581.048C480.636 548.467 461.944 526.665 445.827 512.65L442.546 516.423ZM441.93 515.887L442.546 516.423L445.827 512.65L445.21 512.113L441.93 515.887ZM443.57 511.5H443.445V516.5H443.57V511.5ZM443.526 516.614L444.254 516.366L442.637 511.634L441.909 511.883L443.526 516.614ZM438.581 518.13C440.251 517.676 441.9 517.17 443.526 516.614L441.909 511.883C440.383 512.404 438.836 512.879 437.268 513.306L438.581 518.13ZM437.975 518.295L438.581 518.13L437.268 513.306L436.662 513.471L437.975 518.295ZM439.19 517.655L439.498 517.107L435.138 514.659L434.831 515.207L439.19 517.655ZM413.089 631.824C410.421 584.542 423.71 545.231 439.19 517.655L434.831 515.207C418.967 543.465 405.367 583.715 408.097 632.106L413.089 631.824ZM413.117 632.316L413.089 631.824L408.097 632.106L408.124 632.597L413.117 632.316ZM412.861 631.243L412.547 630.863L408.694 634.05L409.008 634.43L412.861 631.243ZM425 665C425 652.174 420.443 640.411 412.861 631.243L409.008 634.43C415.876 642.734 420 653.38 420 665H425ZM372 718C401.271 718 425 694.271 425 665H420C420 691.51 398.51 713 372 713V718ZM319 665C319 694.271 342.729 718 372 718V713C345.49 713 324 691.51 324 665H319ZM354.132 615.088C333.653 622.42 319 641.997 319 665H324C324 644.175 337.264 626.438 355.817 619.795L354.132 615.088ZM354.542 614.941L354.132 615.088L355.817 619.795L356.227 619.648L354.542 614.941ZM353.68 615.415L353.413 615.758L357.357 618.831L357.624 618.488L353.68 615.415ZM384.035 513.584C389.819 554.603 373.069 590.533 353.68 615.415L357.624 618.488C377.516 592.961 395.023 555.698 388.986 512.886L384.035 513.584ZM383.917 512.749L384.035 513.584L388.986 512.886L388.868 512.051L383.917 512.749ZM384.63 514.363L385.405 514.696L387.38 510.103L386.605 509.77L384.63 514.363ZM366.826 503.863C372.258 508.071 378.234 511.612 384.63 514.363L386.605 509.77C380.602 507.188 374.99 503.863 369.888 499.91L366.826 503.863ZM366.193 503.372L366.826 503.863L369.888 499.91L369.255 499.42L366.193 503.372ZM367.754 504.021L368.514 503.768L366.934 499.024L366.174 499.277L367.754 504.021ZM306.527 546.406C331.485 521.724 351.924 509.292 367.754 504.021L366.175 499.277C349.376 504.87 328.3 517.841 303.012 542.851L306.527 546.406ZM306.03 546.897L306.527 546.406L303.012 542.851L302.514 543.342L306.03 546.897ZM306.821 545.613L306.764 544.916L301.781 545.324L301.838 546.021L306.821 545.613ZM307 550C307 548.523 306.94 547.06 306.821 545.613L301.838 546.021C301.945 547.333 302 548.659 302 550H307ZM254 603C283.271 603 307 579.271 307 550H302C302 576.51 280.51 598 254 598V603ZM201 550C201 579.271 224.729 603 254 603V598C227.49 598 206 576.51 206 550H201ZM254 497C224.729 497 201 520.729 201 550H206C206 523.49 227.49 502 254 502V497ZM276.274 501.894C269.501 498.753 261.954 497 254 497V502C261.212 502 268.043 503.588 274.17 506.43L276.274 501.894ZM276.771 502.124L276.274 501.894L274.17 506.43L274.667 506.66L276.771 502.124ZM275.59 501.836L275.062 501.98L276.377 506.804L276.906 506.66L275.59 501.836ZM337.995 459.627C320.827 483.383 297.172 495.951 275.59 501.836L276.906 506.66C299.31 500.551 324.058 487.447 342.048 462.556L337.995 459.627ZM338.415 459.047L337.995 459.627L342.048 462.556L342.467 461.976L338.415 459.047ZM337.841 460.474L338.028 461.164L342.854 459.858L342.667 459.168L337.841 460.474ZM335 439C335 446.429 335.988 453.628 337.841 460.474L342.667 459.168C340.929 452.744 340 445.984 340 439H335ZM335.151 433.986C335.051 435.644 335 437.316 335 439H340C340 437.417 340.048 435.845 340.142 434.287L335.151 433.986ZM335.181 433.482L335.151 433.986L340.142 434.287L340.172 433.783L335.181 433.482ZM335.317 434.601L335.598 435.021L339.756 432.244L339.476 431.825L335.317 434.601ZM248.634 380.09C279.578 388.319 315.589 405.055 335.317 434.601L339.476 431.825C318.744 400.776 281.304 383.605 249.919 375.258L248.634 380.09ZM248.241 379.986L248.634 380.09L249.919 375.258L249.526 375.154L248.241 379.986ZM249.157 380.088L249.55 379.979L248.217 375.16L247.825 375.269L249.157 380.088ZM235 382C239.902 382 244.65 381.334 249.157 380.088L247.825 375.269C243.747 376.396 239.447 377 235 377V382ZM182 329C182 358.271 205.729 382 235 382V377C208.49 377 187 355.51 187 329H182ZM235 276C205.729 276 182 299.729 182 329H187C187 302.49 208.49 281 235 281V276ZM288 329C288 299.729 264.271 276 235 276V281C261.51 281 283 302.49 283 329H288ZM287.961 331.057C287.987 330.375 288 329.689 288 329H283C283 329.625 282.988 330.247 282.964 330.867L287.961 331.057ZM287.937 331.672L287.961 331.057L282.964 330.867L282.941 331.481L287.937 331.672ZM287.7 330.344L287.284 329.89L283.594 333.264L284.009 333.718L287.7 330.344ZM366.552 374.845C340.384 368.376 310.25 355.015 287.7 330.344L284.009 333.718C307.434 359.346 338.578 373.08 365.352 379.699L366.552 374.845ZM367.273 375.023L366.552 374.845L365.352 379.699L366.073 379.877L367.273 375.023ZM365.686 375.036L365.107 375.501L368.239 379.399L368.817 378.934L365.686 375.036ZM373.91 369.221C371.046 370.993 368.3 372.936 365.686 375.036L368.817 378.934C371.273 376.962 373.852 375.137 376.541 373.473L373.91 369.221ZM374.419 368.906L373.91 369.221L376.541 373.473L377.05 373.158L374.419 368.906ZM373.469 369.818L373.317 370.398L378.153 371.666L378.305 371.087L373.469 369.818ZM376.278 303.214C380.113 319.582 380.895 341.505 373.469 369.818L378.305 371.087C385.921 342.051 385.182 319.299 381.146 302.073L376.278 303.214ZM376.138 302.616L376.278 303.213L381.146 302.073L381.006 301.475L376.138 302.616ZM376.717 303.831L377.236 304.159L379.908 299.932L379.389 299.604L376.717 303.831ZM352 259C352 277.873 361.866 294.442 376.717 303.831L379.389 299.604C365.926 291.093 357 276.088 357 259H352ZM170 402C152.327 402 138 416.327 138 434H143C143 419.088 155.088 407 170 407V402ZM202 434C202 416.327 187.673 402 170 402V407C184.912 407 197 419.088 197 434H202ZM170 466C187.673 466 202 451.673 202 434H197C197 448.912 184.912 461 170 461V466ZM138 434C138 451.673 152.327 466 170 466V461C155.088 461 143 448.912 143 434H138ZM140 434C140 417.431 153.431 404 170 404V399C150.67 399 135 414.67 135 434H140ZM170 464C153.431 464 140 450.569 140 434H135C135 453.33 150.67 469 170 469V464ZM200 434C200 450.569 186.569 464 170 464V469C189.33 469 205 453.33 205 434H200ZM170 404C186.569 404 200 417.431 200 434H205C205 414.67 189.33 399 170 399V404Z" fill="white"/>
<path d="M406.12 409.56C414.04 409.56 420.44 412.08 425.32 417.12C430.2 422.08 432.64 429.04 432.64 438V477H415.84V440.28C415.84 435 414.52 430.96 411.88 428.16C409.24 425.28 405.64 423.84 401.08 423.84C396.44 423.84 392.76 425.28 390.04 428.16C387.4 430.96 386.08 435 386.08 440.28V477H369.28V410.52H386.08V418.8C388.32 415.92 391.16 413.68 394.6 412.08C398.12 410.4 401.96 409.56 406.12 409.56ZM510.416 442.32C510.416 444.72 510.256 446.88 509.936 448.8H461.336C461.736 453.6 463.416 457.36 466.376 460.08C469.336 462.8 472.976 464.16 477.296 464.16C483.536 464.16 487.976 461.48 490.616 456.12H508.736C506.816 462.52 503.136 467.8 497.696 471.96C492.256 476.04 485.576 478.08 477.656 478.08C471.256 478.08 465.496 476.68 460.376 473.88C455.336 471 451.376 466.96 448.496 461.76C445.696 456.56 444.296 450.56 444.296 443.76C444.296 436.88 445.696 430.84 448.496 425.64C451.296 420.44 455.216 416.44 460.256 413.64C465.296 410.84 471.096 409.44 477.656 409.44C483.976 409.44 489.616 410.8 494.576 413.52C499.616 416.24 503.496 420.12 506.216 425.16C509.016 430.12 510.416 435.84 510.416 442.32ZM493.016 437.52C492.936 433.2 491.376 429.76 488.336 427.2C485.296 424.56 481.576 423.24 477.176 423.24C473.016 423.24 469.496 424.52 466.616 427.08C463.816 429.56 462.096 433.04 461.456 437.52H493.016ZM542.238 424.32V456.48C542.238 458.72 542.758 460.36 543.798 461.4C544.918 462.36 546.758 462.84 549.318 462.84H557.118V477H546.558C532.398 477 525.318 470.12 525.318 456.36V424.32H517.398V410.52H525.318V394.08H542.238V410.52H557.118V424.32H542.238ZM586.002 388.2V477H569.202V388.2H586.002ZM598.28 443.52C598.28 436.8 599.6 430.84 602.24 425.64C604.96 420.44 608.6 416.44 613.16 413.64C617.8 410.84 622.96 409.44 628.64 409.44C633.6 409.44 637.92 410.44 641.6 412.44C645.36 414.44 648.36 416.96 650.6 420V410.52H667.52V477H650.6V467.28C648.44 470.4 645.44 473 641.6 475.08C637.84 477.08 633.48 478.08 628.52 478.08C622.92 478.08 617.8 476.64 613.16 473.76C608.6 470.88 604.96 466.84 602.24 461.64C599.6 456.36 598.28 450.32 598.28 443.52ZM650.6 443.76C650.6 439.68 649.8 436.2 648.2 433.32C646.6 430.36 644.44 428.12 641.72 426.6C639 425 636.08 424.2 632.96 424.2C629.84 424.2 626.96 424.96 624.32 426.48C621.68 428 619.52 430.24 617.84 433.2C616.24 436.08 615.44 439.52 615.44 443.52C615.44 447.52 616.24 451.04 617.84 454.08C619.52 457.04 621.68 459.32 624.32 460.92C627.04 462.52 629.92 463.32 632.96 463.32C636.08 463.32 639 462.56 641.72 461.04C644.44 459.44 646.6 457.2 648.2 454.32C649.8 451.36 650.6 447.84 650.6 443.76ZM700.728 420.24C702.888 417.04 705.848 414.44 709.608 412.44C713.448 410.44 717.808 409.44 722.688 409.44C728.368 409.44 733.488 410.84 738.048 413.64C742.688 416.44 746.328 420.44 748.968 425.64C751.688 430.76 753.048 436.72 753.048 443.52C753.048 450.32 751.688 456.36 748.968 461.64C746.328 466.84 742.688 470.88 738.048 473.76C733.488 476.64 728.368 478.08 722.688 478.08C717.728 478.08 713.368 477.12 709.608 475.2C705.928 473.2 702.968 470.64 700.728 467.52V477H683.928V388.2H700.728V420.24ZM735.888 443.52C735.888 439.52 735.048 436.08 733.368 433.2C731.768 430.24 729.608 428 726.888 426.48C724.248 424.96 721.368 424.2 718.248 424.2C715.208 424.2 712.328 425 709.608 426.6C706.968 428.12 704.808 430.36 703.128 433.32C701.528 436.28 700.728 439.76 700.728 443.76C700.728 447.76 701.528 451.24 703.128 454.2C704.808 457.16 706.968 459.44 709.608 461.04C712.328 462.56 715.208 463.32 718.248 463.32C721.368 463.32 724.248 462.52 726.888 460.92C729.608 459.32 731.768 457.04 733.368 454.08C735.048 451.12 735.888 447.6 735.888 443.52Z" fill="white"/>
</svg>
