<svg width="918" height="909" viewBox="0 0 918 909" fill="none" xmlns="http://www.w3.org/2000/svg">
<circle cx="450" cy="459" r="450" fill="white"/>
<path fill-rule="evenodd" clip-rule="evenodd" d="M355.5 268C355.5 240.662 377.662 218.5 405 218.5C432.338 218.5 454.5 240.662 454.5 268C454.5 287.798 442.877 304.886 426.072 312.804L424.964 313.326L424.698 314.521C420.543 333.136 423.248 351.962 429.318 369.158L429.8 370.524L431.225 370.785C442.41 372.832 452.767 377.25 461.757 383.501L462.928 384.314L464.224 383.722C504.682 365.223 530.513 328.567 544.387 297.75L544.721 297.007L544.554 296.211C543.863 292.918 543.5 289.503 543.5 286C543.5 258.662 565.662 236.5 593 236.5C620.338 236.5 642.5 258.662 642.5 286C642.5 313.338 620.338 335.5 593 335.5C589.638 335.5 586.357 335.165 583.188 334.528L582.476 334.385L581.798 334.646C549.597 347.034 526.104 367.8 509.528 390H515.817C531.654 369.722 553.541 351.029 582.926 339.57C586.193 340.181 589.56 340.5 593 340.5C623.1 340.5 647.5 316.1 647.5 286C647.5 255.9 623.1 231.5 593 231.5C562.9 231.5 538.5 255.9 538.5 286C538.5 289.564 538.842 293.05 539.497 296.427C525.975 326.142 501.331 360.736 463.421 378.583C454.53 372.626 444.429 368.33 433.565 366.143C428.174 350.312 425.893 333.386 429.326 316.783C447.21 307.848 459.5 289.362 459.5 268C459.5 237.9 435.1 213.5 405 213.5C374.9 213.5 350.5 237.9 350.5 268C350.5 287.036 360.262 303.791 375.041 313.534C378.579 329.356 379.224 350.411 372.266 377.482C370.01 378.916 367.828 380.455 365.727 382.092C340.287 375.627 311.361 362.619 289.49 339.073C289.497 338.716 289.5 338.359 289.5 338C289.5 307.9 265.1 283.5 235 283.5C204.9 283.5 180.5 307.9 180.5 338C180.5 368.1 204.9 392.5 235 392.5C239.798 392.5 244.455 391.879 248.893 390.713C279.311 398.9 314.218 415.279 333.606 443.747C333.536 445.156 333.5 446.574 333.5 448C333.5 455.141 334.397 462.076 336.086 468.698C319.454 491.188 296.868 503.316 276.06 509.15C269.313 506.16 261.847 504.5 254 504.5C223.9 504.5 199.5 528.9 199.5 559C199.5 589.1 223.9 613.5 254 613.5C284.1 613.5 308.5 589.1 308.5 559C308.5 557.881 308.466 556.769 308.4 555.667C332.23 532.263 351.788 520.215 366.985 514.87C371.851 518.515 377.128 521.641 382.735 524.168C387.844 563.772 371.767 598.547 352.935 622.928C332.241 630.657 317.5 650.604 317.5 674C317.5 704.1 341.9 728.5 372 728.5C402.1 728.5 426.5 704.1 426.5 674C426.5 661.112 422.023 649.263 414.542 639.932C412.116 593.857 424.933 555.459 439.994 528.293C440.879 528.04 441.758 527.773 442.63 527.492C457.7 540.836 475.15 561.393 489.945 591.889C487.717 597.839 486.5 604.28 486.5 611C486.5 641.1 510.9 665.5 541 665.5C571.1 665.5 595.5 641.1 595.5 611C595.5 582.071 572.962 558.408 544.485 556.61C530.191 548.34 514.127 536.954 500.363 523H493.438C508.506 539.188 526.7 552.151 542.503 561.239L543.022 561.537L543.62 561.568C569.739 562.929 590.5 584.541 590.5 611C590.5 638.338 568.338 660.5 541 660.5C513.662 660.5 491.5 638.338 491.5 611C491.5 604.532 492.739 598.36 494.991 592.703L495.396 591.685L494.922 590.697C479.456 558.475 461.004 536.892 445.093 523H440.252C439.395 523.265 438.531 523.516 437.662 523.753L436.651 524.028L436.138 524.941C420.39 552.995 406.883 592.964 409.594 641.021L409.641 641.841L410.164 642.474C417.246 651.037 421.5 662.018 421.5 674C421.5 701.338 399.338 723.5 372 723.5C344.662 723.5 322.5 701.338 322.5 674C322.5 652.522 336.181 634.232 355.312 627.383L355.995 627.138L356.441 626.566C376.182 601.233 393.462 564.369 387.501 522.095L387.304 520.703L386.013 520.148C379.891 517.515 374.171 514.125 368.969 510.096L367.914 509.279L366.648 509.7C350.141 515.196 329.256 528.006 304.066 552.917L303.237 553.737L303.333 554.899C303.443 556.251 303.5 557.618 303.5 559C303.5 586.338 281.338 608.5 254 608.5C226.662 608.5 204.5 586.338 204.5 559C204.5 531.662 226.662 509.5 254 509.5C261.435 509.5 268.48 511.137 274.801 514.069L275.63 514.453L276.511 514.213C298.669 508.171 323.089 495.228 340.832 470.677L341.531 469.711L341.219 468.56C339.447 462.009 338.5 455.117 338.5 448C338.5 446.387 338.549 444.785 338.644 443.196L338.695 442.357L338.228 441.658C317.798 411.059 280.786 394.019 249.533 385.708L248.878 385.534L248.225 385.714C244.018 386.878 239.584 387.5 235 387.5C207.662 387.5 185.5 365.338 185.5 338C185.5 310.662 207.662 288.5 235 288.5C262.338 288.5 284.5 310.662 284.5 338C284.5 338.644 284.488 339.286 284.463 339.924L284.424 340.949L285.116 341.706C308.279 367.046 339.119 380.669 365.712 387.243L366.913 387.54L367.878 386.765C370.381 384.754 373.01 382.894 375.751 381.198L376.601 380.672L376.854 379.706C384.413 350.887 383.661 328.384 379.686 311.415L379.452 310.419L378.587 309.872C364.708 301.098 355.5 285.623 355.5 268ZM141.5 443C141.5 427.26 154.26 414.5 170 414.5C185.74 414.5 198.5 427.26 198.5 443C198.5 458.74 185.74 471.5 170 471.5C154.26 471.5 141.5 458.74 141.5 443ZM170 409.5C151.498 409.5 136.5 424.498 136.5 443C136.5 461.502 151.498 476.5 170 476.5C188.502 476.5 203.5 461.502 203.5 443C203.5 424.498 188.502 409.5 170 409.5Z" fill="black"/>
<path fill-rule="evenodd" clip-rule="evenodd" d="M354.5 268C354.5 240.11 377.11 217.5 405 217.5C432.89 217.5 455.5 240.11 455.5 268C455.5 288.199 443.641 305.632 426.498 313.709L425.834 314.022L425.674 314.739C421.57 333.121 424.234 351.751 430.261 368.825L430.55 369.645L431.405 369.802C442.734 371.875 453.223 376.349 462.328 382.68L463.03 383.168L463.808 382.812C503.964 364.452 529.656 328.035 543.475 297.339L543.675 296.894L543.575 296.416C542.871 293.056 542.5 289.572 542.5 286C542.5 258.11 565.11 235.5 593 235.5C620.89 235.5 643.5 258.11 643.5 286C643.5 313.89 620.89 336.5 593 336.5C589.572 336.5 586.225 336.159 582.991 335.508L582.563 335.423L582.157 335.579C550.452 347.777 527.234 368.151 510.777 390H514.551C530.564 369.305 552.818 350.175 582.831 338.535C586.124 339.168 589.524 339.5 593 339.5C622.547 339.5 646.5 315.547 646.5 286C646.5 256.453 622.547 232.5 593 232.5C563.453 232.5 539.5 256.453 539.5 286C539.5 289.61 539.858 293.137 540.54 296.549C526.931 326.583 501.952 361.758 463.331 379.729C454.282 373.576 443.944 369.174 432.806 367.013C427.188 350.756 424.784 333.27 428.447 316.102C446.239 307.413 458.5 289.14 458.5 268C458.5 238.453 434.547 214.5 405 214.5C375.453 214.5 351.5 238.453 351.5 268C351.5 286.83 361.229 303.387 375.928 312.919C379.598 329.026 380.293 350.493 373.135 378.115C370.65 379.678 368.254 381.37 365.957 383.181C340.177 376.702 310.692 363.522 288.481 339.456C288.493 338.972 288.5 338.487 288.5 338C288.5 308.453 264.547 284.5 235 284.5C205.453 284.5 181.5 308.453 181.5 338C181.5 367.547 205.453 391.5 235 391.5C239.804 391.5 244.462 390.866 248.895 389.678C279.56 397.892 315.019 414.449 334.623 443.464C334.541 444.966 334.5 446.478 334.5 448C334.5 455.222 335.428 462.229 337.173 468.908C320.261 491.989 297.164 504.336 275.981 510.21C269.274 507.184 261.832 505.5 254 505.5C224.453 505.5 200.5 529.453 200.5 559C200.5 588.547 224.453 612.5 254 612.5C283.547 612.5 307.5 588.547 307.5 559C307.5 557.748 307.457 556.506 307.372 555.274C331.678 531.337 351.637 519.093 367.161 513.75C372.231 517.599 377.761 520.876 383.654 523.483C389.048 563.791 372.645 599.133 353.55 623.767C333.096 631.282 318.5 650.934 318.5 674C318.5 703.547 342.453 727.5 372 727.5C401.547 727.5 425.5 703.547 425.5 674C425.5 661.232 421.026 649.506 413.561 640.309C411.035 593.665 424.063 554.829 439.322 527.444C440.513 527.11 441.694 526.75 442.863 526.364C458.191 539.838 475.998 560.719 491.033 591.841C488.75 597.791 487.5 604.251 487.5 611C487.5 640.547 511.453 664.5 541 664.5C570.547 664.5 594.5 640.547 594.5 611C594.5 582.523 572.252 559.244 544.189 557.594C529.561 549.151 513.029 537.429 498.962 523H494.808C509.657 538.771 527.469 551.44 543.002 560.372L543.313 560.551L543.672 560.569C570.319 561.958 591.5 584.006 591.5 611C591.5 638.89 568.89 661.5 541 661.5C513.11 661.5 490.5 638.89 490.5 611C490.5 604.404 491.764 598.106 494.062 592.334L494.305 591.723L494.02 591.13C478.534 558.865 460.054 537.333 444.187 523.536L443.57 523H443.445L442.717 523.249C441.142 523.787 439.543 524.277 437.925 524.718L437.318 524.883L437.01 525.431C421.338 553.348 407.894 593.129 410.593 640.965L410.62 641.457L410.934 641.836C418.16 650.572 422.5 661.777 422.5 674C422.5 701.89 399.89 724.5 372 724.5C344.11 724.5 321.5 701.89 321.5 674C321.5 652.086 335.459 633.429 354.975 626.441L355.385 626.295L355.652 625.951C375.292 600.747 392.421 564.15 386.51 522.235L386.393 521.4L385.618 521.066C379.418 518.4 373.624 514.967 368.357 510.886L367.724 510.396L366.964 510.649C350.65 516.081 329.892 528.782 304.77 553.628L304.272 554.12L304.329 554.817C304.442 556.196 304.5 557.591 304.5 559C304.5 586.89 281.89 609.5 254 609.5C226.11 609.5 203.5 586.89 203.5 559C203.5 531.11 226.11 508.5 254 508.5C261.583 508.5 268.772 510.17 275.222 513.162L275.719 513.392L276.248 513.248C298.241 507.251 322.443 494.415 340.022 470.091L340.441 469.511L340.254 468.821C338.458 462.186 337.5 455.206 337.5 448C337.5 446.367 337.549 444.745 337.646 443.136L337.677 442.633L337.396 442.213C317.167 411.915 280.441 394.962 249.276 386.674L248.883 386.57L248.491 386.678C244.198 387.865 239.675 388.5 235 388.5C207.11 388.5 184.5 365.89 184.5 338C184.5 310.11 207.11 287.5 235 287.5C262.89 287.5 285.5 310.11 285.5 338C285.5 338.657 285.487 339.311 285.463 339.962L285.439 340.577L285.854 341.031C308.842 366.18 339.481 379.728 365.952 386.272L366.673 386.45L367.252 385.985C369.787 383.949 372.449 382.065 375.225 380.347L375.735 380.032L375.887 379.452C383.408 350.778 382.647 328.441 378.712 311.643L378.572 311.046L378.053 310.718C363.896 301.768 354.5 285.981 354.5 268ZM140.5 443C140.5 426.708 153.708 413.5 170 413.5C186.292 413.5 199.5 426.708 199.5 443C199.5 459.292 186.292 472.5 170 472.5C153.708 472.5 140.5 459.292 140.5 443ZM170 410.5C152.051 410.5 137.5 425.051 137.5 443C137.5 460.949 152.051 475.5 170 475.5C187.949 475.5 202.5 460.949 202.5 443C202.5 425.051 187.949 410.5 170 410.5Z" fill="black"/>
<path d="M426.498 313.709L425.433 311.448L426.498 313.709ZM425.834 314.022L424.768 311.761L423.66 312.283L423.394 313.478L425.834 314.022ZM425.674 314.739L428.113 315.284L428.114 315.284L425.674 314.739ZM430.261 368.825L432.618 367.993V367.993L430.261 368.825ZM430.55 369.645L428.193 370.477L428.675 371.843L430.1 372.104L430.55 369.645ZM431.405 369.802L430.955 372.261L431.405 369.802ZM462.328 382.68L460.901 384.732V384.732L462.328 382.68ZM463.03 383.168L461.603 385.221L462.774 386.034L464.07 385.441L463.03 383.168ZM463.808 382.812L464.848 385.086L464.848 385.086L463.808 382.812ZM543.475 297.339L541.195 296.313L541.195 296.313L543.475 297.339ZM543.675 296.894L545.955 297.92L546.289 297.178L546.122 296.381L543.675 296.894ZM543.575 296.416L541.128 296.929L541.128 296.929L543.575 296.416ZM582.991 335.508L583.484 333.058V333.058L582.991 335.508ZM582.563 335.423L583.056 332.972L582.344 332.828L581.666 333.089L582.563 335.423ZM582.157 335.579L581.259 333.246L582.157 335.579ZM510.777 390L508.78 388.496L505.765 392.5H510.777V390ZM514.551 390V392.5H515.777L516.528 391.53L514.551 390ZM582.831 338.535L583.304 336.08L582.598 335.944L581.927 336.204L582.831 338.535ZM540.54 296.549L542.817 297.581L543.149 296.848L542.991 296.058L540.54 296.549ZM463.331 379.729L461.926 381.796L463.099 382.594L464.386 381.995L463.331 379.729ZM432.806 367.013L430.443 367.829L430.914 369.192L432.329 369.467L432.806 367.013ZM428.447 316.102L427.35 313.855L426.256 314.389L426.002 315.58L428.447 316.102ZM375.928 312.919L378.365 312.363L378.14 311.374L377.288 310.821L375.928 312.919ZM373.135 378.115L374.466 380.231L375.306 379.703L375.555 378.742L373.135 378.115ZM365.957 383.181L365.348 385.606L366.54 385.906L367.505 385.145L365.957 383.181ZM288.481 339.456L285.981 339.389L285.954 340.404L286.643 341.151L288.481 339.456ZM248.895 389.678L249.542 387.263L248.894 387.089L248.247 387.263L248.895 389.678ZM334.623 443.464L337.119 443.599L337.164 442.76L336.694 442.064L334.623 443.464ZM337.173 468.908L339.189 470.385L339.892 469.426L339.592 468.276L337.173 468.908ZM275.981 510.21L274.953 512.489L275.778 512.861L276.649 512.619L275.981 510.21ZM307.372 555.274L305.618 553.493L304.799 554.3L304.878 555.446L307.372 555.274ZM367.161 513.75L368.672 511.759L367.609 510.951L366.347 511.386L367.161 513.75ZM383.654 523.483L386.132 523.151L385.946 521.763L384.665 521.196L383.654 523.483ZM353.55 623.767L354.413 626.113L355.087 625.866L355.526 625.298L353.55 623.767ZM413.561 640.309L411.065 640.444L411.109 641.254L411.62 641.884L413.561 640.309ZM439.322 527.444L438.647 525.037L437.645 525.318L437.138 526.227L439.322 527.444ZM442.863 526.364L444.514 524.487L443.439 523.542L442.08 523.99L442.863 526.364ZM491.033 591.841L493.367 592.737L493.755 591.727L493.284 590.754L491.033 591.841ZM544.189 557.594L542.94 559.759L543.452 560.055L544.042 560.089L544.189 557.594ZM498.962 523L500.753 521.255L500.017 520.5H498.962V523ZM494.808 523V520.5H489.02L492.988 524.714L494.808 523ZM543.002 560.372L541.756 562.539L541.756 562.539L543.002 560.372ZM543.313 560.551L542.067 562.718L542.586 563.016L543.183 563.047L543.313 560.551ZM543.672 560.569L543.802 558.073L543.672 560.569ZM494.062 592.334L491.739 591.409V591.409L494.062 592.334ZM494.305 591.723L496.628 592.647L497.033 591.629L496.559 590.641L494.305 591.723ZM494.02 591.13L496.274 590.048L494.02 591.13ZM444.187 523.536L445.827 521.65L444.187 523.536ZM443.57 523L445.21 521.113L444.505 520.5H443.57V523ZM443.445 523V520.5H443.03L442.637 520.634L443.445 523ZM442.717 523.249L443.526 525.614H443.526L442.717 523.249ZM437.925 524.718L437.268 522.306L437.268 522.306L437.925 524.718ZM437.318 524.883L436.662 522.471L435.651 522.746L435.138 523.659L437.318 524.883ZM437.01 525.431L434.831 524.207L434.831 524.207L437.01 525.431ZM410.593 640.965L413.089 640.824V640.824L410.593 640.965ZM410.62 641.457L408.124 641.597L408.171 642.417L408.694 643.05L410.62 641.457ZM410.934 641.836L412.861 640.243L412.861 640.243L410.934 641.836ZM354.975 626.441L355.817 628.795L355.817 628.795L354.975 626.441ZM355.385 626.295L356.227 628.648L356.911 628.404L357.357 627.831L355.385 626.295ZM355.652 625.951L357.624 627.488L357.624 627.488L355.652 625.951ZM386.51 522.235L384.035 522.584L386.51 522.235ZM386.393 521.4L388.868 521.051L388.672 519.658L387.38 519.103L386.393 521.4ZM385.618 521.066L384.63 523.363L384.63 523.363L385.618 521.066ZM368.357 510.886L369.888 508.91L369.888 508.91L368.357 510.886ZM367.724 510.396L369.255 508.42L368.2 507.603L366.934 508.024L367.724 510.396ZM366.964 510.649L367.754 513.021L366.964 510.649ZM304.77 553.628L303.012 551.851H303.012L304.77 553.628ZM304.272 554.12L302.514 552.342L301.685 553.162L301.781 554.324L304.272 554.12ZM304.329 554.817L306.821 554.613L306.821 554.613L304.329 554.817ZM275.222 513.162L274.17 515.43L274.17 515.43L275.222 513.162ZM275.719 513.392L274.667 515.66L275.496 516.045L276.377 515.804L275.719 513.392ZM276.248 513.248L276.906 515.66L276.906 515.66L276.248 513.248ZM340.022 470.091L337.995 468.627V468.627L340.022 470.091ZM340.441 469.511L342.467 470.976L343.165 470.009L342.854 468.858L340.441 469.511ZM340.254 468.821L342.667 468.168V468.168L340.254 468.821ZM337.646 443.136L340.142 443.287L340.142 443.287L337.646 443.136ZM337.677 442.633L340.172 442.783L340.223 441.944L339.756 441.244L337.677 442.633ZM337.396 442.213L339.476 440.825L339.476 440.825L337.396 442.213ZM249.276 386.674L249.919 384.258H249.919L249.276 386.674ZM248.883 386.57L249.526 384.154L248.871 383.979L248.217 384.16L248.883 386.57ZM248.491 386.678L247.825 384.269H247.825L248.491 386.678ZM285.463 339.962L287.961 340.057V340.057L285.463 339.962ZM285.439 340.577L282.941 340.481L282.902 341.506L283.594 342.264L285.439 340.577ZM285.854 341.031L284.009 342.718V342.718L285.854 341.031ZM365.952 386.272L366.552 383.845L365.952 386.272ZM366.673 386.45L366.073 388.877L367.274 389.174L368.239 388.399L366.673 386.45ZM367.252 385.985L368.817 387.934L368.817 387.934L367.252 385.985ZM375.225 380.347L376.541 382.473L376.541 382.473L375.225 380.347ZM375.735 380.032L377.05 382.158L377.9 381.632L378.153 380.666L375.735 380.032ZM375.887 379.452L378.305 380.087V380.087L375.887 379.452ZM378.712 311.643L376.278 312.213V312.214L378.712 311.643ZM378.572 311.046L381.006 310.475L380.773 309.479L379.908 308.932L378.572 311.046ZM378.053 310.718L379.389 308.604L379.389 308.604L378.053 310.718ZM405 215C375.729 215 352 238.729 352 268H357C357 241.49 378.49 220 405 220V215ZM458 268C458 238.729 434.271 215 405 215V220C431.51 220 453 241.49 453 268H458ZM427.564 315.971C445.549 307.496 458 289.203 458 268H453C453 287.196 441.732 303.768 425.433 311.448L427.564 315.971ZM426.899 316.284L427.564 315.971L425.433 311.448L424.768 311.761L426.899 316.284ZM428.114 315.284L428.274 314.567L423.394 313.478L423.234 314.195L428.114 315.284ZM432.618 367.993C426.699 351.223 424.14 333.083 428.113 315.284L423.234 314.195C419.001 333.158 421.769 352.279 427.903 369.658L432.618 367.993ZM432.908 368.813L432.618 367.993L427.903 369.657L428.193 370.477L432.908 368.813ZM431.855 367.342L431 367.186L430.1 372.104L430.955 372.261L431.855 367.342ZM463.755 380.627C454.365 374.098 443.543 369.481 431.855 367.342L430.955 372.261C441.924 374.268 452.082 378.601 460.901 384.732L463.755 380.627ZM464.458 381.115L463.755 380.627L460.901 384.732L461.603 385.221L464.458 381.115ZM462.769 380.539L461.991 380.894L464.07 385.441L464.848 385.086L462.769 380.539ZM541.195 296.313C527.514 326.703 502.169 362.524 462.769 380.539L464.848 385.086C505.759 366.38 531.799 329.366 545.754 298.366L541.195 296.313ZM541.396 295.868L541.195 296.313L545.754 298.366L545.955 297.92L541.396 295.868ZM541.128 296.929L541.229 297.407L546.122 296.381L546.022 295.903L541.128 296.929ZM540 286C540 289.745 540.389 293.401 541.128 296.929L546.022 295.903C545.353 292.711 545 289.399 545 286H540ZM593 233C563.729 233 540 256.729 540 286H545C545 259.49 566.49 238 593 238V233ZM646 286C646 256.729 622.271 233 593 233V238C619.51 238 641 259.49 641 286H646ZM593 339C622.271 339 646 315.271 646 286H641C641 312.51 619.51 334 593 334V339ZM582.498 337.959C585.893 338.642 589.405 339 593 339V334C589.738 334 586.556 333.675 583.484 333.058L582.498 337.959ZM582.071 337.874L582.498 337.959L583.484 333.058L583.056 332.972L582.071 337.874ZM583.054 337.912L583.461 337.756L581.666 333.089L581.259 333.246L583.054 337.912ZM512.774 391.504C528.999 369.964 551.857 349.915 583.054 337.912L581.259 333.246C549.047 345.639 525.469 366.339 508.78 388.496L512.774 391.504ZM510.777 392.5H514.551V387.5H510.777V392.5ZM581.927 336.204C551.424 348.034 528.819 367.475 512.574 388.47L516.528 391.53C532.31 371.134 554.211 352.316 583.735 340.865L581.927 336.204ZM593 337C589.684 337 586.442 336.684 583.304 336.08L582.359 340.989C585.807 341.653 589.365 342 593 342V337ZM644 286C644 314.167 621.167 337 593 337V342C623.928 342 649 316.928 649 286H644ZM593 235C621.167 235 644 257.833 644 286H649C649 255.072 623.928 230 593 230V235ZM542 286C542 257.833 564.833 235 593 235V230C562.072 230 537 255.072 537 286H542ZM542.991 296.058C542.341 292.807 542 289.444 542 286H537C537 289.775 537.374 293.467 538.089 297.039L542.991 296.058ZM464.386 381.995C503.748 363.68 529.071 327.919 542.817 297.581L538.263 295.517C524.792 325.247 500.156 359.836 462.276 377.462L464.386 381.995ZM432.329 369.467C443.127 371.562 453.15 375.829 461.926 381.796L464.737 377.661C455.414 371.322 444.76 366.786 433.282 364.559L432.329 369.467ZM426.002 315.58C422.219 333.312 424.722 351.272 430.443 367.829L435.168 366.196C429.655 350.239 427.349 333.229 430.892 316.623L426.002 315.58ZM456 268C456 288.148 444.317 305.57 427.35 313.855L429.544 318.348C448.161 309.256 461 290.131 461 268H456ZM405 217C433.167 217 456 239.833 456 268H461C461 237.072 435.928 212 405 212V217ZM354 268C354 239.833 376.833 217 405 217V212C374.072 212 349 237.072 349 268H354ZM377.288 310.821C363.27 301.73 354 285.947 354 268H349C349 287.712 359.188 305.043 374.567 315.016L377.288 310.821ZM375.555 378.742C382.805 350.765 382.131 328.892 378.365 312.363L373.49 313.474C377.065 329.161 377.781 350.221 370.715 377.488L375.555 378.742ZM367.505 385.145C369.733 383.388 372.056 381.747 374.466 380.231L371.804 375.999C369.244 377.609 366.776 379.352 364.409 381.218L367.505 385.145ZM286.643 341.151C309.287 365.685 339.267 379.051 365.348 385.606L366.567 380.757C341.087 374.353 312.098 361.359 290.318 337.76L286.643 341.151ZM286 338C286 338.464 285.994 338.927 285.981 339.389L290.98 339.522C290.993 339.016 291 338.509 291 338H286ZM235 287C263.167 287 286 309.833 286 338H291C291 307.072 265.928 282 235 282V287ZM184 338C184 309.833 206.833 287 235 287V282C204.072 282 179 307.072 179 338H184ZM235 389C206.833 389 184 366.167 184 338H179C179 368.928 204.072 394 235 394V389ZM248.247 387.263C244.024 388.396 239.583 389 235 389V394C240.025 394 244.901 393.337 249.543 392.092L248.247 387.263ZM336.694 442.064C316.591 412.31 280.429 395.537 249.542 387.263L248.248 392.092C278.692 400.248 313.447 416.587 332.551 444.863L336.694 442.064ZM337 448C337 446.523 337.04 445.056 337.119 443.599L332.126 443.328C332.042 444.875 332 446.433 332 448H337ZM339.592 468.276C337.901 461.802 337 455.007 337 448H332C332 455.437 332.956 462.656 334.754 469.539L339.592 468.276ZM276.649 512.619C298.239 506.633 321.871 494.021 339.189 470.385L335.156 467.43C318.65 489.957 296.09 502.04 275.313 507.801L276.649 512.619ZM254 508C261.47 508 268.562 509.605 274.953 512.489L277.01 507.931C269.985 504.762 262.193 503 254 503V508ZM203 559C203 530.833 225.833 508 254 508V503C223.072 503 198 528.072 198 559H203ZM254 610C225.833 610 203 587.167 203 559H198C198 589.928 223.072 615 254 615V610ZM305 559C305 587.167 282.167 610 254 610V615C284.928 615 310 589.928 310 559H305ZM304.878 555.446C304.959 556.62 305 557.805 305 559H310C310 557.691 309.955 556.391 309.866 555.103L304.878 555.446ZM366.347 511.386C350.356 516.89 330.088 529.394 305.618 553.493L309.126 557.056C333.268 533.279 352.918 521.296 367.974 516.114L366.347 511.386ZM384.665 521.196C378.952 518.669 373.59 515.492 368.672 511.759L365.649 515.741C370.872 519.706 376.57 523.082 382.642 525.769L384.665 521.196ZM355.526 625.298C374.87 600.342 391.644 564.344 386.132 523.151L381.176 523.814C386.452 563.239 370.42 597.923 351.575 622.235L355.526 625.298ZM321 674C321 652.016 334.91 633.278 354.413 626.113L352.688 621.42C331.282 629.285 316 649.853 316 674H321ZM372 725C343.833 725 321 702.167 321 674H316C316 704.928 341.072 730 372 730V725ZM423 674C423 702.167 400.167 725 372 725V730C402.928 730 428 704.928 428 674H423ZM411.62 641.884C418.736 650.652 423 661.827 423 674H428C428 660.638 423.315 648.36 415.502 638.733L411.62 641.884ZM437.138 526.227C421.691 553.951 408.509 593.252 411.065 640.444L416.057 640.173C413.561 594.078 426.436 555.707 441.506 528.661L437.138 526.227ZM442.08 523.99C440.947 524.364 439.802 524.713 438.647 525.037L439.997 529.851C441.225 529.507 442.442 529.136 443.647 528.738L442.08 523.99ZM493.284 590.754C478.1 559.322 460.086 538.176 444.514 524.487L441.213 528.242C456.296 541.501 473.896 562.115 488.782 592.929L493.284 590.754ZM490 611C490 604.562 491.192 598.405 493.367 592.737L488.699 590.946C486.308 597.177 485 603.94 485 611H490ZM541 662C512.833 662 490 639.167 490 611H485C485 641.928 510.072 667 541 667V662ZM592 611C592 639.167 569.167 662 541 662V667C571.928 667 597 641.928 597 611H592ZM544.042 560.089C570.792 561.662 592 583.855 592 611H597C597 581.192 573.713 556.826 544.336 555.098L544.042 560.089ZM497.172 524.745C511.437 539.377 528.167 551.233 542.94 559.759L545.439 555.428C530.956 547.07 514.62 535.48 500.753 521.255L497.172 524.745ZM498.962 520.5H494.808V525.5H498.962V520.5ZM544.248 558.205C528.866 549.359 511.266 536.833 496.628 521.286L492.988 524.714C508.048 540.709 526.073 553.521 541.756 562.539L544.248 558.205ZM544.559 558.383L544.248 558.204L541.756 562.539L542.067 562.718L544.559 558.383ZM543.802 558.073L543.443 558.054L543.183 563.047L543.542 563.066L543.802 558.073ZM594 611C594 582.669 571.771 559.53 543.802 558.073L543.542 563.066C568.868 564.385 589 585.343 589 611H594ZM541 664C570.271 664 594 640.271 594 611H589C589 637.51 567.51 659 541 659V664ZM488 611C488 640.271 511.729 664 541 664V659C514.49 659 493 637.51 493 611H488ZM491.739 591.409C489.326 597.471 488 604.082 488 611H493C493 604.725 494.202 598.741 496.384 593.258L491.739 591.409ZM491.982 590.798L491.739 591.409L496.384 593.258L496.628 592.647L491.982 590.798ZM491.766 592.212L492.051 592.804L496.559 590.641L496.274 590.048L491.766 592.212ZM442.546 525.423C458.163 539.002 476.431 560.262 491.766 592.212L496.274 590.048C480.636 557.467 461.944 535.665 445.827 521.65L442.546 525.423ZM441.93 524.887L442.546 525.423L445.827 521.65L445.21 521.113L441.93 524.887ZM443.57 520.5H443.445V525.5H443.57V520.5ZM443.526 525.614L444.254 525.366L442.637 520.634L441.909 520.883L443.526 525.614ZM438.581 527.13C440.251 526.676 441.9 526.17 443.526 525.614L441.909 520.883C440.383 521.404 438.836 521.879 437.268 522.306L438.581 527.13ZM437.975 527.295L438.581 527.13L437.268 522.306L436.662 522.471L437.975 527.295ZM439.19 526.655L439.498 526.107L435.138 523.659L434.831 524.207L439.19 526.655ZM413.089 640.824C410.421 593.542 423.71 554.231 439.19 526.655L434.831 524.207C418.967 552.465 405.367 592.715 408.097 641.106L413.089 640.824ZM413.117 641.316L413.089 640.824L408.097 641.106L408.124 641.597L413.117 641.316ZM412.861 640.243L412.547 639.863L408.694 643.05L409.008 643.43L412.861 640.243ZM425 674C425 661.174 420.443 649.411 412.861 640.243L409.008 643.43C415.876 651.734 420 662.38 420 674H425ZM372 727C401.271 727 425 703.271 425 674H420C420 700.51 398.51 722 372 722V727ZM319 674C319 703.271 342.729 727 372 727V722C345.49 722 324 700.51 324 674H319ZM354.132 624.088C333.653 631.42 319 650.997 319 674H324C324 653.175 337.264 635.438 355.817 628.795L354.132 624.088ZM354.542 623.941L354.132 624.088L355.817 628.795L356.227 628.648L354.542 623.941ZM353.68 624.415L353.413 624.758L357.357 627.831L357.624 627.488L353.68 624.415ZM384.035 522.584C389.819 563.603 373.069 599.533 353.68 624.415L357.624 627.488C377.516 601.961 395.023 564.698 388.986 521.886L384.035 522.584ZM383.917 521.749L384.035 522.584L388.986 521.886L388.868 521.051L383.917 521.749ZM384.63 523.363L385.405 523.696L387.38 519.103L386.605 518.77L384.63 523.363ZM366.826 512.863C372.258 517.071 378.234 520.612 384.63 523.363L386.605 518.77C380.602 516.188 374.99 512.863 369.888 508.91L366.826 512.863ZM366.193 512.372L366.826 512.863L369.888 508.91L369.255 508.42L366.193 512.372ZM367.754 513.021L368.514 512.768L366.934 508.024L366.174 508.277L367.754 513.021ZM306.527 555.406C331.485 530.724 351.924 518.292 367.754 513.021L366.174 508.277C349.376 513.87 328.3 526.841 303.012 551.851L306.527 555.406ZM306.03 555.897L306.527 555.406L303.012 551.851L302.514 552.342L306.03 555.897ZM306.821 554.613L306.764 553.916L301.781 554.324L301.838 555.021L306.821 554.613ZM307 559C307 557.523 306.94 556.06 306.821 554.613L301.838 555.021C301.945 556.333 302 557.659 302 559H307ZM254 612C283.271 612 307 588.271 307 559H302C302 585.51 280.51 607 254 607V612ZM201 559C201 588.271 224.729 612 254 612V607C227.49 607 206 585.51 206 559H201ZM254 506C224.729 506 201 529.729 201 559H206C206 532.49 227.49 511 254 511V506ZM276.274 510.894C269.501 507.753 261.954 506 254 506V511C261.212 511 268.043 512.588 274.17 515.43L276.274 510.894ZM276.771 511.124L276.274 510.894L274.17 515.43L274.667 515.66L276.771 511.124ZM275.59 510.836L275.062 510.98L276.377 515.804L276.906 515.66L275.59 510.836ZM337.995 468.627C320.827 492.383 297.172 504.951 275.59 510.836L276.906 515.66C299.31 509.551 324.058 496.447 342.048 471.556L337.995 468.627ZM338.415 468.047L337.995 468.627L342.048 471.556L342.467 470.976L338.415 468.047ZM337.841 469.474L338.028 470.164L342.854 468.858L342.667 468.168L337.841 469.474ZM335 448C335 455.429 335.988 462.628 337.841 469.474L342.667 468.168C340.929 461.744 340 454.984 340 448H335ZM335.151 442.986C335.051 444.644 335 446.316 335 448H340C340 446.417 340.048 444.845 340.142 443.287L335.151 442.986ZM335.181 442.482L335.151 442.986L340.142 443.287L340.172 442.783L335.181 442.482ZM335.317 443.601L335.598 444.021L339.756 441.244L339.476 440.825L335.317 443.601ZM248.634 389.09C279.578 397.319 315.589 414.055 335.317 443.601L339.476 440.825C318.744 409.776 281.304 392.605 249.919 384.258L248.634 389.09ZM248.241 388.986L248.634 389.09L249.919 384.258L249.526 384.154L248.241 388.986ZM249.157 389.088L249.55 388.979L248.217 384.16L247.825 384.269L249.157 389.088ZM235 391C239.902 391 244.65 390.334 249.157 389.088L247.825 384.269C243.747 385.396 239.447 386 235 386V391ZM182 338C182 367.271 205.729 391 235 391V386C208.49 386 187 364.51 187 338H182ZM235 285C205.729 285 182 308.729 182 338H187C187 311.49 208.49 290 235 290V285ZM288 338C288 308.729 264.271 285 235 285V290C261.51 290 283 311.49 283 338H288ZM287.961 340.057C287.987 339.375 288 338.689 288 338H283C283 338.625 282.988 339.247 282.964 339.867L287.961 340.057ZM287.937 340.672L287.961 340.057L282.964 339.867L282.941 340.481L287.937 340.672ZM287.7 339.344L287.284 338.89L283.594 342.264L284.009 342.718L287.7 339.344ZM366.552 383.845C340.384 377.376 310.25 364.015 287.7 339.344L284.009 342.718C307.434 368.346 338.578 382.08 365.352 388.699L366.552 383.845ZM367.273 384.023L366.552 383.845L365.352 388.699L366.073 388.877L367.273 384.023ZM365.686 384.036L365.107 384.501L368.239 388.399L368.817 387.934L365.686 384.036ZM373.91 378.221C371.046 379.993 368.3 381.936 365.686 384.036L368.817 387.934C371.273 385.962 373.852 384.137 376.541 382.473L373.91 378.221ZM374.419 377.906L373.91 378.221L376.541 382.473L377.05 382.158L374.419 377.906ZM373.469 378.818L373.317 379.398L378.153 380.666L378.305 380.087L373.469 378.818ZM376.278 312.214C380.113 328.582 380.895 350.505 373.469 378.818L378.305 380.087C385.921 351.051 385.182 328.299 381.146 311.073L376.278 312.214ZM376.138 311.616L376.278 312.213L381.146 311.073L381.006 310.475L376.138 311.616ZM376.717 312.831L377.236 313.159L379.908 308.932L379.389 308.604L376.717 312.831ZM352 268C352 286.873 361.866 303.442 376.717 312.831L379.389 308.604C365.926 300.093 357 285.088 357 268H352ZM170 411C152.327 411 138 425.327 138 443H143C143 428.088 155.088 416 170 416V411ZM202 443C202 425.327 187.673 411 170 411V416C184.912 416 197 428.088 197 443H202ZM170 475C187.673 475 202 460.673 202 443H197C197 457.912 184.912 470 170 470V475ZM138 443C138 460.673 152.327 475 170 475V470C155.088 470 143 457.912 143 443H138ZM140 443C140 426.431 153.431 413 170 413V408C150.67 408 135 423.67 135 443H140ZM170 473C153.431 473 140 459.569 140 443H135C135 462.33 150.67 478 170 478V473ZM200 443C200 459.569 186.569 473 170 473V478C189.33 478 205 462.33 205 443H200ZM170 413C186.569 413 200 426.431 200 443H205C205 423.67 189.33 408 170 408V413Z" fill="black"/>
<path d="M406.12 418.56C414.04 418.56 420.44 421.08 425.32 426.12C430.2 431.08 432.64 438.04 432.64 447V486H415.84V449.28C415.84 444 414.52 439.96 411.88 437.16C409.24 434.28 405.64 432.84 401.08 432.84C396.44 432.84 392.76 434.28 390.04 437.16C387.4 439.96 386.08 444 386.08 449.28V486H369.28V419.52H386.08V427.8C388.32 424.92 391.16 422.68 394.6 421.08C398.12 419.4 401.96 418.56 406.12 418.56ZM510.416 451.32C510.416 453.72 510.256 455.88 509.936 457.8H461.336C461.736 462.6 463.416 466.36 466.376 469.08C469.336 471.8 472.976 473.16 477.296 473.16C483.536 473.16 487.976 470.48 490.616 465.12H508.736C506.816 471.52 503.136 476.8 497.696 480.96C492.256 485.04 485.576 487.08 477.656 487.08C471.256 487.08 465.496 485.68 460.376 482.88C455.336 480 451.376 475.96 448.496 470.76C445.696 465.56 444.296 459.56 444.296 452.76C444.296 445.88 445.696 439.84 448.496 434.64C451.296 429.44 455.216 425.44 460.256 422.64C465.296 419.84 471.096 418.44 477.656 418.44C483.976 418.44 489.616 419.8 494.576 422.52C499.616 425.24 503.496 429.12 506.216 434.16C509.016 439.12 510.416 444.84 510.416 451.32ZM493.016 446.52C492.936 442.2 491.376 438.76 488.336 436.2C485.296 433.56 481.576 432.24 477.176 432.24C473.016 432.24 469.496 433.52 466.616 436.08C463.816 438.56 462.096 442.04 461.456 446.52H493.016ZM542.238 433.32V465.48C542.238 467.72 542.758 469.36 543.798 470.4C544.918 471.36 546.758 471.84 549.318 471.84H557.118V486H546.558C532.398 486 525.318 479.12 525.318 465.36V433.32H517.398V419.52H525.318V403.08H542.238V419.52H557.118V433.32H542.238ZM586.002 397.2V486H569.202V397.2H586.002ZM598.28 452.52C598.28 445.8 599.6 439.84 602.24 434.64C604.96 429.44 608.6 425.44 613.16 422.64C617.8 419.84 622.96 418.44 628.64 418.44C633.6 418.44 637.92 419.44 641.6 421.44C645.36 423.44 648.36 425.96 650.6 429V419.52H667.52V486H650.6V476.28C648.44 479.4 645.44 482 641.6 484.08C637.84 486.08 633.48 487.08 628.52 487.08C622.92 487.08 617.8 485.64 613.16 482.76C608.6 479.88 604.96 475.84 602.24 470.64C599.6 465.36 598.28 459.32 598.28 452.52ZM650.6 452.76C650.6 448.68 649.8 445.2 648.2 442.32C646.6 439.36 644.44 437.12 641.72 435.6C639 434 636.08 433.2 632.96 433.2C629.84 433.2 626.96 433.96 624.32 435.48C621.68 437 619.52 439.24 617.84 442.2C616.24 445.08 615.44 448.52 615.44 452.52C615.44 456.52 616.24 460.04 617.84 463.08C619.52 466.04 621.68 468.32 624.32 469.92C627.04 471.52 629.92 472.32 632.96 472.32C636.08 472.32 639 471.56 641.72 470.04C644.44 468.44 646.6 466.2 648.2 463.32C649.8 460.36 650.6 456.84 650.6 452.76ZM700.728 429.24C702.888 426.04 705.848 423.44 709.608 421.44C713.448 419.44 717.808 418.44 722.688 418.44C728.368 418.44 733.488 419.84 738.048 422.64C742.688 425.44 746.328 429.44 748.968 434.64C751.688 439.76 753.048 445.72 753.048 452.52C753.048 459.32 751.688 465.36 748.968 470.64C746.328 475.84 742.688 479.88 738.048 482.76C733.488 485.64 728.368 487.08 722.688 487.08C717.728 487.08 713.368 486.12 709.608 484.2C705.928 482.2 702.968 479.64 700.728 476.52V486H683.928V397.2H700.728V429.24ZM735.888 452.52C735.888 448.52 735.048 445.08 733.368 442.2C731.768 439.24 729.608 437 726.888 435.48C724.248 433.96 721.368 433.2 718.248 433.2C715.208 433.2 712.328 434 709.608 435.6C706.968 437.12 704.808 439.36 703.128 442.32C701.528 445.28 700.728 448.76 700.728 452.76C700.728 456.76 701.528 460.24 703.128 463.2C704.808 466.16 706.968 468.44 709.608 470.04C712.328 471.56 715.208 472.32 718.248 472.32C721.368 472.32 724.248 471.52 726.888 469.92C729.608 468.32 731.768 466.04 733.368 463.08C735.048 460.12 735.888 456.6 735.888 452.52Z" fill="black"/>
</svg>
